<svg id="Layer_1" data-name="Layer 1" xmlns="http://www.w3.org/2000/svg" viewBox="0 0 1087.543 246.868">
  <defs>
    <style>
      .cls-1 {
        fill: #79c675;
      }

      .cls-11, .cls-13, .cls-2, .cls-5 {
        fill: #fff;
      }

      .cls-10, .cls-11, .cls-12, .cls-13, .cls-14, .cls-2, .cls-3, .cls-4, .cls-5, .cls-6, .cls-7, .cls-8, .cls-9 {
        stroke: #282828;
        stroke-miterlimit: 10;
      }

      .cls-2, .cls-3 {
        stroke-width: 3px;
      }

      .cls-10, .cls-12, .cls-14, .cls-3, .cls-4, .cls-6, .cls-7, .cls-8, .cls-9 {
        fill: none;
      }

      .cls-11, .cls-4, .cls-5 {
        stroke-width: 4px;
      }

      .cls-10, .cls-5, .cls-7, .cls-8 {
        stroke-linecap: round;
      }

      .cls-7 {
        stroke-dasharray: 2.004 2.004;
      }

      .cls-12, .cls-13, .cls-14, .cls-8 {
        stroke-width: 2px;
      }

      .cls-10, .cls-9 {
        stroke-width: 0.5px;
      }

      .cls-10 {
        stroke-dasharray: 2 2;
      }

      .cls-14 {
        stroke-dasharray: 2 7;
      }

      .cls-15 {
        fill: #679360;
      }
    </style>
  </defs>
  <title>3de8c547-c7ec-4ccc-b11c-9ac8284966c2</title>
  <path class="cls-1" d="M212.817,235.332a80.338,80.338,0,0,0-5.724-6.609,1.332,1.332,0,0,0,.145-.61,1.364,1.364,0,0,0-.616-1.108c-.559-.361-1.344-.291-1.844-.729-.265-.232-.411-.579-.684-.8a1.384,1.384,0,0,0-.668-.274,38.487,38.487,0,0,0-4.723-3.615c-.009-.022-.016-.046-.026-.067a2.83,2.83,0,0,0-.7-.846,3.158,3.158,0,0,0-1.1-.765.86.86,0,0,0-.929.185,10.625,10.625,0,0,0-4.242-1.029c-3.053,0-7.182,1.945-11.279,4.489-.182.012-.364.03-.545.058a3.786,3.786,0,0,0-2.317,1.171,11.847,11.847,0,0,1-1.072,1.387l-.243.172a1.381,1.381,0,0,1-.138.069c-.567.242-1.231.061-1.828.215a1.692,1.692,0,0,0-1.162,2.021c-4.625,3.53-8.083,6.684-8.083,6.684Z"/>
  <rect class="cls-2" x="40.616" y="206.792" width="13.568" height="26.47"/>
  <rect class="cls-3" x="42.375" y="200.671" width="10.049" height="3.555"/>
  <path class="cls-3" d="M53.5,200.671H40.616s-10.469-22.186-6-25.6"/>
  <path class="cls-3" d="M42.373,200.671"/>
  <path class="cls-3" d="M37.834,175.074"/>
  <path class="cls-3" d="M42.373,175.074c-1.391.612,2.2,25.6,2.2,25.6"/>
  <path class="cls-3" d="M45.813,200.671"/>
  <path class="cls-3" d="M45.813,175.074"/>
  <path class="cls-3" d="M50.228,200.671"/>
  <path class="cls-3" d="M52.424,175.074"/>
  <path class="cls-2" d="M141.852,186.735H66.433s-1.325,26.545,5.89,33.984S84.1,230.345,84.1,230.345v2.917H124.18v-2.917s4.565-2.188,11.781-9.626S141.852,186.735,141.852,186.735Z"/>
  <path class="cls-3" d="M154.7,235.332V149.449s1.836-2.444-.316-3.586c0,0,6.578-18.06-3.664-20.378"/>
  <path class="cls-2" d="M20.1,192.233H14.907s-22.175,23.49-9.487,32.573c4.783,3.6,2.609,8.3.079,8.456H29.5c-2.53-.157-4.7-4.855.079-8.456C42.272,215.723,20.1,192.233,20.1,192.233Z"/>
  <path class="cls-3" d="M40.852,200.671H53.737s10.469-22.186,6-25.6"/>
  <path class="cls-3" d="M51.98,175.074c1.391.612-2.2,25.6-2.2,25.6"/>
  <g>
    <path class="cls-4" d="M572.922,137.577"/>
    <rect class="cls-5" x="480.033" y="115.891" width="128.977" height="128.977" rx="3.921" ry="3.921"/>
    <line class="cls-6" x1="544.522" y1="116.269" x2="544.522" y2="244.49"/>
    <line class="cls-6" x1="544.522" y1="116.269" x2="544.522" y2="244.49"/>
    <line class="cls-6" x1="480.411" y1="180.379" x2="608.632" y2="180.379"/>
    <path class="cls-6" d="M543.787,180.293s-15.65-10.08-15.9-19.477"/>
    <path class="cls-6" d="M544.7,180.293s4.822-26.9,15.085-21.332S544.7,180.293,544.7,180.293Z"/>
    <path class="cls-6" d="M542.974,181.218s-8.16,15.085-13.477,13.848"/>
    <path class="cls-6" d="M544.7,180.293s25.842,5.746,21.514,13.041S544.7,180.293,544.7,180.293Z"/>
    <rect class="cls-6" x="493.17" y="131.432" width="12.354" height="16.136"/>
    <rect class="cls-6" x="510.315" y="131.432" width="12.354" height="16.136"/>
    <circle class="cls-7" cx="506.281" cy="151.925" r="10.211"/>
  </g>
  <path class="cls-4" d="M837.641,218.069"/>
  <rect class="cls-8" x="814.439" y="212.652" width="32.216" height="32.216" rx="3.083" ry="3.083"/>
  <line class="cls-9" x1="830.547" y1="212.747" x2="830.547" y2="244.773"/>
  <line class="cls-9" x1="830.547" y1="212.747" x2="830.547" y2="244.773"/>
  <line class="cls-9" x1="814.534" y1="228.76" x2="846.561" y2="228.76"/>
  <path class="cls-9" d="M830.364,228.739s-3.909-2.518-3.971-4.865"/>
  <path class="cls-9" d="M830.593,228.739s1.2-6.718,3.768-5.328S830.593,228.739,830.593,228.739Z"/>
  <path class="cls-9" d="M830.161,228.969s-2.038,3.768-3.366,3.459"/>
  <path class="cls-9" d="M830.593,228.739s6.455,1.435,5.374,3.257S830.593,228.739,830.593,228.739Z"/>
  <rect class="cls-9" x="817.721" y="216.534" width="3.086" height="4.03"/>
  <rect class="cls-9" x="822.003" y="216.534" width="3.086" height="4.03"/>
  <circle class="cls-10" cx="820.996" cy="221.653" r="2.55"/>
  <g>
    <rect class="cls-11" x="883.868" y="44.877" width="174.345" height="199.044"/>
    <rect class="cls-11" x="883.868" y="44.877" width="174.345" height="149.065"/>
    <rect class="cls-12" x="1032.642" y="1" width="15.982" height="10.17"/>
    <rect class="cls-12" x="1035.257" y="11.17" width="10.751" height="16.563"/>
    <rect class="cls-3" x="1004.456" y="103.573" width="40.099" height="8.717"/>
    <rect class="cls-3" x="1004.456" y="129.434" width="40.099" height="8.717"/>
    <rect class="cls-3" x="901.157" y="129.434" width="40.099" height="8.717"/>
    <rect class="cls-3" x="1008.379" y="138.151" width="32.254" height="43.075"/>
    <rect class="cls-12" x="1008.379" y="138.151" width="32.254" height="21.538"/>
    <rect class="cls-3" x="954.695" y="129.434" width="40.099" height="8.717"/>
    <rect class="cls-3" x="958.618" y="138.151" width="32.254" height="43.075"/>
    <rect class="cls-12" x="958.618" y="138.151" width="32.254" height="21.538"/>
    <path class="cls-3" d="M1022.171,59.7h4.524a13.937,13.937,0,0,1,13.937,13.937v29.939a0,0,0,0,1,0,0h-32.4a0,0,0,0,1,0,0V73.634A13.937,13.937,0,0,1,1022.171,59.7Z"/>
    <rect class="cls-12" x="1008.234" y="89.916" width="32.399" height="13.657"/>
    <rect class="cls-12" x="1008.234" y="76.259" width="32.399" height="13.657"/>
    <rect class="cls-3" x="901.157" y="103.573" width="40.099" height="8.717"/>
    <path class="cls-3" d="M918.872,59.7H923.4a13.937,13.937,0,0,1,13.937,13.937v29.939a0,0,0,0,1,0,0h-32.4a0,0,0,0,1,0,0V73.634A13.937,13.937,0,0,1,918.872,59.7Z"/>
    <rect class="cls-12" x="904.934" y="89.916" width="32.399" height="13.657"/>
    <rect class="cls-12" x="904.934" y="76.259" width="32.399" height="13.657"/>
    <rect class="cls-3" x="954.695" y="103.573" width="40.099" height="8.717"/>
    <path class="cls-3" d="M972.41,59.7h4.524a13.937,13.937,0,0,1,13.937,13.937v29.939a0,0,0,0,1,0,0h-32.4a0,0,0,0,1,0,0V73.634A13.937,13.937,0,0,1,972.41,59.7Z"/>
    <rect class="cls-12" x="958.473" y="89.916" width="32.399" height="13.657"/>
    <rect class="cls-12" x="958.473" y="76.259" width="32.399" height="13.657"/>
    <path class="cls-3" d="M1022.171,200.044h4.524a13.937,13.937,0,0,1,13.937,13.937v29.939a0,0,0,0,1,0,0h-32.4a0,0,0,0,1,0,0V213.981A13.937,13.937,0,0,1,1022.171,200.044Z"/>
    <rect class="cls-12" x="1008.234" y="230.263" width="32.399" height="13.657"/>
    <rect class="cls-12" x="1008.234" y="216.606" width="32.399" height="13.657"/>
    <path class="cls-3" d="M972.483,200.044h4.524a13.937,13.937,0,0,1,13.937,13.937v29.939a0,0,0,0,1,0,0h-32.4a0,0,0,0,1,0,0V213.981a13.937,13.937,0,0,1,13.937-13.937Z"/>
    <rect class="cls-12" x="958.545" y="230.263" width="32.399" height="13.657"/>
    <rect class="cls-12" x="958.545" y="216.606" width="32.399" height="13.657"/>
    <rect class="cls-12" x="903.627" y="235.203" width="35.16" height="8.717"/>
    <rect class="cls-12" x="903.627" y="226.486" width="35.16" height="8.717"/>
    <rect class="cls-12" x="903.627" y="217.769" width="35.16" height="8.717"/>
    <rect class="cls-12" x="903.627" y="209.052" width="35.16" height="8.717"/>
    <path class="cls-4" d="M836.795,108.513A15.11,15.11,0,0,1,851.9,93.4h0a15.11,15.11,0,0,1,15.11,15.11V243.921"/>
    <path class="cls-12" d="M836.795,228.811"/>
    <path class="cls-12" d="M845.536,116.431a8.741,8.741,0,0,0-17.483,0Z"/>
    <path class="cls-12" d="M843.042,116.431a6.247,6.247,0,1,1-12.495,0Z"/>
    <rect class="cls-13" x="894.038" y="182.609" width="53.756" height="61.311"/>
    <rect class="cls-13" x="903.627" y="138.151" width="35.16" height="105.769"/>
    <rect class="cls-13" x="912.44" y="144.562" width="17.533" height="30.467"/>
    <rect class="cls-13" x="912.44" y="181.165" width="17.533" height="12.776"/>
    <line class="cls-11" x1="857.408" y1="244.49" x2="1087.543" y2="244.49"/>
    <rect class="cls-4" x="874.86" y="27.733" width="191.779" height="17.144"/>
  </g>
  <line class="cls-14" x1="251.33" y1="192.233" x2="442.33" y2="192.233"/>
  <line class="cls-14" x1="633.038" y1="192.233" x2="824.038" y2="192.233"/>
  <path class="cls-15" d="M187.791,226.627c.6-.155,1.262.026,1.828-.216a1.375,1.375,0,0,0,.138-.069l.243-.172a11.847,11.847,0,0,0,1.072-1.387,3.787,3.787,0,0,1,2.317-1.171c.181-.028.363-.046.545-.058a49.409,49.409,0,0,1,4.446-2.478,5.546,5.546,0,0,0-.4-.4,3.159,3.159,0,0,0-1.1-.765.86.86,0,0,0-.929.185,10.625,10.625,0,0,0-4.242-1.029c-3.053,0-7.182,1.945-11.279,4.489-.182.012-.364.03-.545.058a3.787,3.787,0,0,0-2.317,1.171,11.847,11.847,0,0,1-1.072,1.387l-.243.172a1.375,1.375,0,0,1-.138.069c-.567.242-1.231.061-1.828.216a1.692,1.692,0,0,0-1.162,2.021c-4.625,3.53-8.083,6.684-8.083,6.684h13.5s3.459-3.154,8.083-6.684A1.692,1.692,0,0,1,187.791,226.627Z"/>
  <path class="cls-3" d="M212.817,235.332a80.338,80.338,0,0,0-5.724-6.609,1.332,1.332,0,0,0,.145-.61,1.364,1.364,0,0,0-.616-1.108c-.559-.361-1.344-.291-1.844-.729-.265-.232-.411-.579-.684-.8a1.384,1.384,0,0,0-.668-.274,38.487,38.487,0,0,0-4.723-3.615c-.009-.022-.016-.046-.026-.067a2.83,2.83,0,0,0-.7-.846,3.158,3.158,0,0,0-1.1-.765.86.86,0,0,0-.929.185,10.625,10.625,0,0,0-4.242-1.029c-3.053,0-7.182,1.945-11.279,4.489-.182.012-.364.03-.545.058a3.786,3.786,0,0,0-2.317,1.171,11.847,11.847,0,0,1-1.072,1.387l-.243.172a1.381,1.381,0,0,1-.138.069c-.567.242-1.231.061-1.828.215a1.692,1.692,0,0,0-1.162,2.021c-4.625,3.53-8.083,6.684-8.083,6.684Z"/>
  <path class="cls-2" d="M634.635,142.258a25.625,25.625,0,0,1-51.25,0S634.635,128.106,634.635,142.258Z"/>
  <path class="cls-2" d="M583.385,142.258s45.5-12.375,50.25-2.1c.971,2.1-11.76,4.188-27.5,4.188s-22.75-2.085-22.75-2.085"/>
</svg>
