<svg id="Layer_1" data-name="Layer 1" xmlns="http://www.w3.org/2000/svg" viewBox="0 0 149.945 629.234">
  <defs>
    <style>
      .cls-1, .cls-2, .cls-3 {
        fill: none;
        stroke: #252625;
      }

      .cls-1, .cls-3 {
        stroke-miterlimit: 10;
      }

      .cls-1, .cls-2 {
        stroke-width: 3px;
      }

      .cls-2 {
        stroke-linejoin: round;
      }

      .cls-3 {
        stroke-width: 2px;
        stroke-dasharray: 7 4;
      }

      .cls-4 {
        fill: #252625;
      }

      .cls-5 {
        fill: #1a1818;
      }
    </style>
  </defs>
  <title>bef56a05-2fa5-4a35-89c6-ce6011244ae8</title>
  <rect class="cls-1" x="-214.384" y="375.896" width="486.31" height="9.458" transform="translate(-351.854 409.396) rotate(-90)"/>
  <path class="cls-2" d="M33.5,117.166C68.75-9.859,1.5,1.779,1.5,1.779,59.5,14.9,22.25,117.166,22.25,117.166Z"/>
  <polygon class="cls-2" points="33.5 137.47 24.042 137.47 22.25 117.166 33.5 117.166 33.5 137.47"/>
  <g>
    <line class="cls-3" x1="92.161" y1="449.897" x2="92.161" y2="2.91"/>
    <rect class="cls-4" x="85.661" y="448.897" width="13" height="2"/>
    <polygon class="cls-4" points="97.477 7.217 96.525 8.104 92.162 3.409 87.797 8.104 86.845 7.217 92.162 1.5 97.477 7.217"/>
  </g>
  <g>
    <line class="cls-3" x1="92.161" y1="501.414" x2="92.161" y2="627.824"/>
    <rect class="cls-4" x="85.661" y="500.414" width="13" height="2"/>
    <polygon class="cls-4" points="86.844 623.517 87.796 622.63 92.159 627.325 96.524 622.63 97.476 623.517 92.159 629.234 86.844 623.517"/>
  </g>
  <g>
    <path class="cls-5" d="M61.441,466.888h-.06l-3.39,1.83-.51-2.01,4.26-2.28h2.25v19.5h-2.55Z"/>
    <path class="cls-5" d="M76.831,466.888h-.06l-3.39,1.83-.51-2.01,4.26-2.28h2.25v19.5h-2.55Z"/>
    <path class="cls-5" d="M104.04,483.387a9.725,9.725,0,0,1-4.17.84c-4.38,0-7.229-2.97-7.229-7.41a7.377,7.377,0,0,1,7.8-7.709,8.828,8.828,0,0,1,3.66.75l-.6,2.04a6.118,6.118,0,0,0-3.06-.69c-3.33,0-5.129,2.46-5.129,5.49,0,3.36,2.16,5.43,5.04,5.43a7.5,7.5,0,0,0,3.24-.72Z"/>
    <path class="cls-5" d="M107.13,473.338c0-1.5-.03-2.73-.12-3.93h2.31l.12,2.34h.09a5,5,0,0,1,4.56-2.67,4.292,4.292,0,0,1,4.11,2.91h.06a5.985,5.985,0,0,1,1.62-1.89,4.957,4.957,0,0,1,3.21-1.02c1.92,0,4.77,1.26,4.77,6.3v8.55h-2.58v-8.22c0-2.79-1.02-4.47-3.15-4.47a3.418,3.418,0,0,0-3.12,2.4,4.342,4.342,0,0,0-.21,1.32v8.97h-2.58v-8.7c0-2.31-1.02-3.99-3.03-3.99a3.934,3.934,0,0,0-3.479,3.93v8.76h-2.58Z"/>
  </g>
</svg>
