<svg id="Layer_1" data-name="Layer 1" xmlns="http://www.w3.org/2000/svg" viewBox="0 0 217.987 283.803">
  <defs>
    <style>
      .cls-1, .cls-4 {
        fill: #fff;
      }

      .cls-1, .cls-2, .cls-3, .cls-4, .cls-5, .cls-6, .cls-7 {
        stroke: #282828;
        stroke-miterlimit: 10;
      }

      .cls-1, .cls-2 {
        stroke-width: 3px;
      }

      .cls-2, .cls-3, .cls-5, .cls-6, .cls-7 {
        fill: none;
      }

      .cls-3, .cls-4 {
        stroke-width: 4px;
      }

      .cls-4, .cls-6 {
        stroke-linecap: round;
      }

      .cls-6 {
        stroke-dasharray: 2.004 2.004;
      }

      .cls-7 {
        stroke-width: 2px;
        stroke-dasharray: 2 7;
      }
    </style>
  </defs>
  <title>41b7bfe5-c373-46a9-8c5b-c1c388ff656b</title>
  <rect class="cls-1" x="54.37" y="82.769" width="13.568" height="26.47"/>
  <rect class="cls-2" x="56.13" y="76.649" width="10.049" height="3.555"/>
  <path class="cls-2" d="M67.255,76.649H54.37s-10.469-22.186-6-25.6"/>
  <path class="cls-2" d="M56.127,76.649"/>
  <path class="cls-2" d="M51.588,51.051"/>
  <path class="cls-2" d="M56.127,51.051c-1.391.612,2.2,25.6,2.2,25.6"/>
  <path class="cls-2" d="M59.568,76.649"/>
  <path class="cls-2" d="M59.568,51.051"/>
  <path class="cls-2" d="M63.982,76.649"/>
  <path class="cls-2" d="M66.178,51.051"/>
  <path class="cls-1" d="M155.606,62.712H80.187S78.862,89.258,86.078,96.7s11.781,9.626,11.781,9.626v2.917h40.076v-2.917s4.565-2.188,11.781-9.626S155.606,62.712,155.606,62.712Z"/>
  <path class="cls-2" d="M168.451,111.31V25.426s1.836-2.444-.316-3.586c0,0,6.578-18.06-3.664-20.378"/>
  <path class="cls-1" d="M33.852,68.21H28.661S6.486,91.7,19.174,100.783c4.783,3.6,2.609,8.3.079,8.456H43.259c-2.53-.157-4.7-4.855.079-8.456C56.027,91.7,33.852,68.21,33.852,68.21Z"/>
  <path class="cls-2" d="M54.607,76.649H67.492s10.469-22.186,6-25.6"/>
  <path class="cls-2" d="M65.735,51.051c1.391.612-2.2,25.6-2.2,25.6"/>
  <g>
    <path class="cls-3" d="M138.129,174.512"/>
    <rect class="cls-4" x="45.24" y="152.826" width="128.977" height="128.977" rx="3.921" ry="3.921"/>
    <line class="cls-5" x1="109.728" y1="153.204" x2="109.728" y2="281.425"/>
    <line class="cls-5" x1="109.728" y1="153.204" x2="109.728" y2="281.425"/>
    <line class="cls-5" x1="45.618" y1="217.314" x2="173.839" y2="217.314"/>
    <path class="cls-5" d="M108.994,217.228s-15.65-10.08-15.9-19.477"/>
    <path class="cls-5" d="M109.912,217.228s4.822-26.9,15.085-21.332S109.912,217.228,109.912,217.228Z"/>
    <path class="cls-5" d="M108.181,218.152S100.02,233.237,94.7,232"/>
    <path class="cls-5" d="M109.912,217.228s25.842,5.746,21.514,13.041S109.912,217.228,109.912,217.228Z"/>
    <rect class="cls-5" x="58.377" y="168.367" width="12.354" height="16.136"/>
    <rect class="cls-5" x="75.522" y="168.367" width="12.354" height="16.136"/>
    <circle class="cls-6" cx="71.488" cy="188.86" r="10.211"/>
  </g>
  <path class="cls-1" d="M199.842,179.193a25.625,25.625,0,0,1-51.25,0S199.842,165.04,199.842,179.193Z"/>
  <path class="cls-1" d="M148.592,179.193s45.5-12.375,50.25-2.1c.971,2.1-11.76,4.188-27.5,4.188s-22.75-2.085-22.75-2.085"/>
  <path class="cls-7" d="M30.437,252.755A108.032,108.032,0,0,1,17.758,120.842"/>
  <path class="cls-7" d="M209.888,140.059a108.131,108.131,0,0,1-23.976,114.394"/>
</svg>
