<!-- Generator: Adobe Illustrator 19.2.1, SVG Export Plug-In  -->
<svg version="1.1"
	 xmlns="http://www.w3.org/2000/svg" xmlns:xlink="http://www.w3.org/1999/xlink" xmlns:a="http://ns.adobe.com/AdobeSVGViewerExtensions/3.0/"
	 x="0px" y="0px" width="216.1px" height="118.7px" viewBox="0 0 216.1 118.7" enable-background="new 0 0 216.1 118.7"
	 xml:space="preserve">
<defs>
</defs>
<path fill="none" stroke="#3A3A3A" stroke-width="3" stroke-miterlimit="10" d="M174.1,114.3H66.3v-90H156c10,0,18.1,8.1,18.1,18.1
	V114.3z"/>
<path fill="none" stroke="#3A3A3A" stroke-width="3" stroke-miterlimit="10" d="M66.3,114.3h36.2V39.8c0-8.6-6.9-15.5-15.5-15.5
	H66.3V114.3z"/>
<path fill="none" stroke="#3A3A3A" stroke-width="3" stroke-miterlimit="10" d="M152.3,69.3h-2.2c-1.8,0-3.3-1.5-3.3-3.3V52.5
	c0-1.8,1.5-3.3,3.3-3.3h2.2c1.8,0,3.3,1.5,3.3,3.3v13.4C155.6,67.8,154.1,69.3,152.3,69.3z"/>
<line fill="none" stroke="#3A3A3A" stroke-width="3" stroke-miterlimit="10" x1="129.3" y1="60.3" x2="146.7" y2="60.3"/>
<line fill="none" stroke="#3A3A3A" stroke-width="3" stroke-miterlimit="10" x1="156.6" y1="60.3" x2="174.1" y2="60.3"/>
<path fill="#99CE80" stroke="#3A3A3A" stroke-width="3" stroke-miterlimit="10" d="M40.3,83.1c0.2-0.5,2.8-10.8-11.2-17.1
	c0,0,1-3.6,4.6-4.2c0,0,5.7,4.6,14.8,2.5"/>
<path fill="#99CE80" stroke="#3A3A3A" stroke-width="3" stroke-miterlimit="10" d="M76.4,117.2c-57.3,0-32.5-55.4-24-55.4h48
	C109,61.7,133.8,117.2,76.4,117.2"/>
<line fill="none" stroke="#3A3A3A" stroke-width="3" stroke-miterlimit="10" x1="102.5" y1="60.3" x2="119.2" y2="60.3"/>
<path fill="none" stroke="#3A3A3A" stroke-width="3" stroke-miterlimit="10" d="M124.7,69.3h-2.2c-1.8,0-3.3-1.5-3.3-3.3V52.5
	c0-1.8,1.5-3.3,3.3-3.3h2.2c1.8,0,3.3,1.5,3.3,3.3v13.4C128.1,67.8,126.6,69.3,124.7,69.3z"/>
<path fill="none" stroke="#3A3A3A" stroke-width="3" stroke-miterlimit="10" d="M137.8,24.3h-37.2V8.7c0-4,3.2-7.2,7.2-7.2h22.9
	c4,0,7.2,3.2,7.2,7.2V24.3z"/>
<path fill="none" stroke="#3A3A3A" stroke-width="3" stroke-miterlimit="10" d="M130.2,24.3h-22.2V11.9c0-1.7,1.4-3.1,3.1-3.1h16
	c1.7,0,3.1,1.4,3.1,3.1V24.3z"/>
<path fill="#83B268" d="M83.7,49.3H67.8c-8.5,0-15.4,2.1-15.4,10.6v0c0,1,0.8,1.8,1.8,1.8h43c1,0,1.8-0.8,1.8-1.8v0
	C99.1,51.4,92.2,49.3,83.7,49.3z"/>
<path fill="#83B268" stroke="#3A3A3A" stroke-width="3" stroke-miterlimit="10" d="M77.8,49.3h-5.4c-1.4,0-2.5-1.1-2.5-2.5v-1.6
	c0-1.4,1.1-2.5,2.5-2.5h5.4c1.4,0,2.5,1.1,2.5,2.5v1.6C80.2,48.2,79.1,49.3,77.8,49.3z"/>
<path fill="none" stroke="#3A3A3A" stroke-width="3" stroke-miterlimit="10" d="M104.5,65.1c6.7-1.6,15.1,2.8,16.9,10.4
	c1.8,7.6-2.4,19.7-9.1,21.4"/>
<path fill="none" stroke="#3A3A3A" stroke-width="3" stroke-miterlimit="10" d="M76.4,117.2c-57.3,0-32.5-55.4-24-55.4h48
	C109,61.7,133.8,117.2,76.4,117.2"/>
<path fill="none" stroke="#3A3A3A" stroke-width="3" stroke-miterlimit="10" d="M83.7,49.3H67.8c-8.5,0-15.4,2.1-15.4,10.6v0
	c0,1,0.8,1.8,1.8,1.8h43c1,0,1.8-0.8,1.8-1.8v0C99.1,51.4,92.2,49.3,83.7,49.3z"/>
<path fill="none" stroke="#D6E7AF" stroke-width="3" stroke-linecap="round" stroke-miterlimit="10" d="M97.5,69.3
	c0,0,11,12.1,3.1,27.5"/>
<line fill="none" stroke="#99CE80" stroke-width="3" stroke-miterlimit="10" x1="0" y1="117.2" x2="39.7" y2="117.2"/>
<line fill="none" stroke="#99CE80" stroke-width="3" stroke-miterlimit="10" x1="187" y1="114.3" x2="216.1" y2="114.3"/>
<line fill="none" stroke="#99CE80" stroke-width="3" stroke-miterlimit="10" x1="27.4" y1="51.8" x2="27.4" y2="24.3"/>
<line fill="none" stroke="#99CE80" stroke-width="3" stroke-miterlimit="10" x1="15.4" y1="51.8" x2="15.4" y2="42.8"/>
<line fill="none" stroke="#99CE80" stroke-width="3" stroke-miterlimit="10" x1="35.7" y1="47.3" x2="35.7" y2="34.8"/>
</svg>
