<!-- Generator: Adobe Illustrator 19.2.1, SVG Export Plug-In  -->
<svg version="1.1"
	 xmlns="http://www.w3.org/2000/svg" xmlns:xlink="http://www.w3.org/1999/xlink" xmlns:a="http://ns.adobe.com/AdobeSVGViewerExtensions/3.0/"
	 x="0px" y="0px" width="139.5px" height="141.268px" viewBox="0 0 139.5 141.268"
	 style="enable-background:new 0 0 139.5 141.268;" xml:space="preserve">
<style type="text/css">
	.st0{fill:none;stroke:#99CE80;stroke-width:3;stroke-miterlimit:10;}
	.st1{fill:none;stroke:#3A3A3A;stroke-width:3;stroke-miterlimit:10;}
	.st2{fill:#99CE80;}
</style>
<defs>
</defs>
<path class="st0" d="M21,91.167c0,5.385-4.365,9.75-9.75,9.75s-9.75-4.365-9.75-9.75"/>
<path class="st0" d="M40.5,91.167c0,5.385-4.365,9.75-9.75,9.75S21,96.551,21,91.167"/>
<path class="st0" d="M60,91.167c0,5.385-4.365,9.75-9.75,9.75s-9.75-4.365-9.75-9.75"/>
<path class="st0" d="M65.873,100.115C62.417,98.616,60,95.174,60,91.167"/>
<path class="st0" d="M79.5,91.167c0,2.411-0.875,4.618-2.326,6.32"/>
<path class="st0" d="M99,91.167c0,5.385-4.365,9.75-9.75,9.75s-9.75-4.365-9.75-9.75"/>
<path class="st0" d="M118.5,91.167c0,5.385-4.365,9.75-9.75,9.75S99,96.551,99,91.167"/>
<path class="st0" d="M138,91.167c0,5.385-4.365,9.75-9.75,9.75c-5.385,0-9.75-4.365-9.75-9.75"/>
<path class="st0" d="M30.75,100.917c0,5.385-4.365,9.75-9.75,9.75s-9.75-4.365-9.75-9.75"/>
<path class="st0" d="M50.25,100.917c0,5.385-4.365,9.75-9.75,9.75s-9.75-4.365-9.75-9.75"/>
<path class="st0" d="M65.482,108.98c-1.562,1.064-3.45,1.686-5.482,1.686c-5.385,0-9.75-4.365-9.75-9.75"/>
<path class="st0" d="M89.25,100.917c0,5.385-4.365,9.75-9.75,9.75c-0.857,0-1.688-0.111-2.48-0.318"/>
<path class="st0" d="M108.75,100.917c0,5.385-4.365,9.75-9.75,9.75s-9.75-4.365-9.75-9.75"/>
<path class="st0" d="M128.25,100.917c0,5.385-4.365,9.75-9.75,9.75s-9.75-4.365-9.75-9.75"/>
<path class="st1" d="M77.768,117.877V42.667c0-3.314-2.686-6-6-6h0c-3.314,0-6,2.686-6,6v75.211C62.315,119.928,60,123.693,60,128
	c0,6.499,5.269,11.768,11.768,11.768c6.499,0,11.768-5.269,11.768-11.768C83.535,123.693,81.22,119.928,77.768,117.877z"/>
<circle class="st2" cx="71.649" cy="128" r="7.167"/>
<rect x="69.965" y="74.167" class="st2" width="3.368" height="48.667"/>
<line class="st0" x1="34.333" y1="72" x2="34.333" y2="36.667"/>
<line class="st0" x1="48.667" y1="74.167" x2="48.667" y2="61.667"/>
<line class="st0" x1="90.098" y1="80" x2="90.098" y2="61.667"/>
<line class="st0" x1="23.333" y1="70.833" x2="23.333" y2="56.333"/>
<line class="st0" x1="56.333" y1="12.667" x2="56.333" y2="0"/>
</svg>