<!-- Generator: Adobe Illustrator 19.2.1, SVG Export Plug-In  -->
<svg version="1.1"
	 xmlns="http://www.w3.org/2000/svg" xmlns:xlink="http://www.w3.org/1999/xlink" xmlns:a="http://ns.adobe.com/AdobeSVGViewerExtensions/3.0/"
	 x="0px" y="0px" width="135.606px" height="130.923px" viewBox="0 0 135.606 130.923"
	 style="enable-background:new 0 0 135.606 130.923;" xml:space="preserve">
<style type="text/css">
	.st0{fill:#99CE80;}
	.st1{fill:#669966;}
	.st2{fill:none;stroke:#4F4F51;stroke-width:3;stroke-linecap:round;stroke-miterlimit:10;}
	.st3{fill:none;stroke:#4F4F51;stroke-width:3;stroke-miterlimit:10;stroke-dasharray:7,4;}
</style>
<defs>
</defs>
<g>
	<path class="st0" d="M66.463,2.748c0,0-3.197,4.911-7.104,12.518v9.301l-3.459-2.189c-1.68,3.665-3.359,7.678-4.871,11.888v4.132
		l-1.161-0.735c-1.129,3.445-2.118,6.987-2.888,10.558l2.002,5.815h38.004C83.438,28.802,66.463,2.748,66.463,2.748z"/>
	<path class="st0" d="M87.643,62.793c0-2.879-0.242-5.812-0.656-8.756H48.983l0.94,2.73l-4.206-0.996
		c-0.273,2.361-0.434,4.71-0.434,7.023c0,0.484,0.021,0.952,0.034,1.427"/>
	<path class="st1" d="M54.634,62.689c0.629-2.917,1.409-5.811,2.287-8.652h-7.938l0.94,2.73l-4.206-0.996
		c-0.273,2.361-0.434,4.71-0.434,7.023c0,0.484,0.021,0.952,0.034,1.427"/>
	<path class="st1" d="M57.522,52.131l1.161,0.735v-4.132c1.512-4.211,3.192-8.223,4.871-11.888l3.459,2.189v-9.301
		c3.907-7.606,7.104-12.518,7.104-12.518s0.808,1.242,2.099,3.426c-5.002-10.6-9.753-17.893-9.753-17.893s-3.197,4.911-7.104,12.518
		v9.301l-3.459-2.189c-1.68,3.665-3.359,7.678-4.871,11.888v4.132l-1.161-0.735c-1.129,3.445-2.118,6.987-2.888,10.558l2.002,5.815
		h7.938C57.118,53.399,57.315,52.762,57.522,52.131z"/>
	<path class="st2" d="M87.643,62.793c0-27.557-21.18-60.045-21.18-60.045s-3.197,4.912-7.104,12.518v9.301l-3.459-2.189
		c-1.68,3.665-3.359,7.677-4.871,11.888v4.132l-1.161-0.735c-1.129,3.445-2.118,6.987-2.888,10.558l2.943,8.544l-4.206-0.996
		c-0.273,2.361-0.434,4.71-0.434,7.023c0,0.484,0.021,0.952,0.034,1.427"/>
</g>
<line class="st3" x1="0" y1="64.22" x2="135.606" y2="64.22"/>
<path class="st2" d="M45.626,64.22c0,8.165,2.272,15.551,5.938,20.87c1.371,1.989,2.937,3.689,4.653,5.033l-6.894,6.767"/>
<path class="st2" d="M85.591,64.22c0,5.28-0.95,10.233-2.612,14.513c-1.622,4.175-3.921,7.708-6.679,10.277l7.443,7.879"/>
<path class="st2" d="M65.609,34.881"/>
<circle class="st0" cx="56.921" cy="73.153" r="2.38"/>
<circle class="st0" cx="72.013" cy="78.935" r="3.401"/>
<circle class="st0" cx="63.546" cy="83.982" r="4.245"/>
<circle class="st0" cx="66.752" cy="105.293" r="3.205"/>
<circle class="st0" cx="56.924" cy="102.911" r="2.382"/>
<circle class="st0" cx="76.529" cy="105.455" r="1.115"/>
<circle class="st0" cx="68.023" cy="115.776" r="1.04"/>
<circle class="st0" cx="58.216" cy="118.721" r="0.347"/>
<circle class="st0" cx="51.094" cy="118.548" r="0.173"/>
<circle class="st0" cx="47.494" cy="113.69" r="0.513"/>
<circle class="st0" cx="55.444" cy="124.439" r="0"/>
<circle class="st0" cx="67.127" cy="125.103" r="0.664"/>
<circle class="st0" cx="69.51" cy="122.287" r="0.447"/>
<circle class="st0" cx="75.815" cy="116.176" r="0.401"/>
<circle class="st0" cx="80.567" cy="121.493" r="0.866"/>
<circle class="st0" cx="71.525" cy="129.258" r="0.488"/>
<circle class="st0" cx="58.759" cy="126.309" r="0.543"/>
<circle class="st0" cx="53.953" cy="130.334" r="0.588"/>
<circle class="st0" cx="47.237" cy="120.884" r="0.257"/>
<circle class="st0" cx="85.814" cy="108.103" r="2.648"/>
<circle class="st0" cx="63.199" cy="119.283" r="1.601"/>
<circle class="st0" cx="90.671" cy="128.825" r="0.921"/>
<circle class="st0" cx="36.688" cy="110.188" r="1.689"/>
</svg>