<!-- Generator: Adobe Illustrator 19.2.1, SVG Export Plug-In  -->
<svg version="1.1"
	 xmlns="http://www.w3.org/2000/svg" xmlns:xlink="http://www.w3.org/1999/xlink" xmlns:a="http://ns.adobe.com/AdobeSVGViewerExtensions/3.0/"
	 x="0px" y="0px" width="143.333px" height="107.228px" viewBox="0 0 143.333 107.228"
	 style="enable-background:new 0 0 143.333 107.228;" xml:space="preserve">
<style type="text/css">
	.st0{fill:#669966;}
	.st1{fill:#99CE80;}
	.st2{fill:none;stroke:#4F4F51;stroke-width:3;stroke-linecap:round;stroke-miterlimit:10;}
	.st3{fill:none;stroke:#3A3A3A;stroke-width:3;stroke-miterlimit:10;}
	.st4{fill:none;stroke:#99CE80;stroke-width:3;stroke-miterlimit:10;}
</style>
<defs>
</defs>
<g>
	<path class="st0" d="M106.67,10.687c0,0-8.44,4.426-13.562,7.864l-3.248,5.872c0,0-6.221,1.084-8.646,3.214l-1.443,2.609
		l-0.477-0.87c-1.916,1.78-3.777,3.672-5.51,5.657l-1.126,6.422l-2.307-2.098c-0.997,1.395-1.918,2.822-2.726,4.282
		c-0.169,0.306-0.319,0.609-0.477,0.913l-0.352,2.01c10.872,0,21.743,0,32.615,0C104.965,29.935,106.67,10.687,106.67,10.687z"/>
	<path class="st1" d="M79.074,41.181l0.476,0.87l22.193-17.117l4.926-14.247c0,0-8.44,4.426-13.562,7.864l-3.248,5.872
		l-10.565,4.954c-1.916,1.78-3.777,3.672-5.51,5.657l-1.979,2.492l-1.455,1.832c-0.997,1.395-1.918,2.822-2.726,4.282
		c-0.169,0.306-0.319,0.609-0.477,0.913l-0.352,2.01c2.342,0,4.683,0,7.025,0C75.482,44.679,77.25,42.877,79.074,41.181z"/>
	<path class="st2" d="M99.411,46.562c5.554-16.626,7.259-35.875,7.259-35.875s-8.44,4.426-13.562,7.864l-3.248,5.872l-10.089,5.823
		l-0.477-0.87c-1.916,1.78-3.777,3.672-5.51,5.657l-3.433,4.324c-0.997,1.395-1.918,2.822-2.726,4.282
		c-0.169,0.306-0.319,0.609-0.477,0.913l-0.352,2.01"/>
</g>
<path class="st3" d="M71.806,103.812L71.806,103.812c-19.629,0-37.128-12.369-43.678-30.873l-9.072-25.627h105.5l-9.072,25.627
	C108.934,91.443,91.435,103.812,71.806,103.812z"/>
<line class="st4" x1="120.333" y1="99.062" x2="134.333" y2="99.062"/>
<line class="st4" x1="132.833" y1="105.728" x2="143.333" y2="105.728"/>
<line class="st4" x1="14.333" y1="99.062" x2="0" y2="99.062"/>
<line class="st4" x1="18" y1="105.728" x2="21.167" y2="105.728"/>
<line class="st4" x1="26.333" y1="103.812" x2="28.833" y2="103.812"/>
<line class="st4" x1="24.667" y1="96.728" x2="26.333" y2="96.728"/>
<path class="st4" d="M47.167,30.312c0-0.083,0-0.167,0-0.25V11.52"/>
<line class="st4" x1="56.167" y1="36.312" x2="56.167" y2="24.495"/>
<line class="st4" x1="30.917" y1="24.812" x2="30.917" y2="0"/>
<line class="st4" x1="23.167" y1="24.062" x2="23.167" y2="34.668"/>
</svg>